<svg width="32" height="32" viewBox="0 0 32 32" fill="none" xmlns="http://www.w3.org/2000/svg">
<path fill-rule="evenodd" clip-rule="evenodd" d="M10.5934 4.33341L10.6666 4.33341H21.3333L21.4064 4.33341C23.2299 4.33338 24.6997 4.33336 25.8556 4.48877C27.0557 4.65013 28.0662 4.99532 28.8688 5.79787C29.6714 6.60043 30.0166 7.61093 30.1779 8.81107C30.2425 9.2918 30.2803 9.82679 30.3023 10.4189C30.3225 10.4982 30.3333 10.5812 30.3333 10.6667C30.3333 10.731 30.3272 10.7938 30.3156 10.8547C30.3333 11.5765 30.3333 12.3767 30.3333 13.26V13.2602V13.3334V18.6667V18.7399C30.3333 20.5634 30.3333 22.0331 30.1779 23.1891C30.0166 24.3892 29.6714 25.3997 28.8688 26.2023C28.0662 27.0048 27.0557 27.35 25.8556 27.5114C24.6996 27.6668 23.2299 27.6668 21.4064 27.6667H21.3333H10.6666H10.5935C8.77 27.6668 7.30023 27.6668 6.14427 27.5114C4.94413 27.35 3.93363 27.0048 3.13107 26.2023C2.32852 25.3997 1.98332 24.3892 1.82197 23.1891C1.66655 22.0331 1.66658 20.5634 1.6666 18.7399L1.6666 18.6667V13.3334L1.6666 13.2602C1.66659 12.3769 1.66658 11.5765 1.68424 10.8547C1.67266 10.7938 1.6666 10.731 1.6666 10.6667C1.6666 10.5812 1.67734 10.4982 1.69754 10.4189C1.71959 9.82679 1.75734 9.2918 1.82197 8.81107C1.98332 7.61093 2.32852 6.60043 3.13107 5.79787C3.93363 4.99532 4.94413 4.65012 6.14427 4.48877C7.30023 4.33336 8.76999 4.33338 10.5934 4.33341ZM28.1957 9.07757C28.2206 9.26239 28.2409 9.45826 28.2576 9.66671H3.74224C3.75892 9.45826 3.77928 9.26239 3.80413 9.07757C3.93567 8.0992 4.17627 7.5811 4.54528 7.21209C4.9143 6.84307 5.4324 6.60247 6.41076 6.47094C7.4179 6.33553 8.75272 6.33341 10.6666 6.33341H21.3333C23.2472 6.33341 24.582 6.33553 25.5891 6.47094C26.5675 6.60247 27.0856 6.84307 27.4546 7.21209C27.8236 7.5811 28.0642 8.0992 28.1957 9.07757ZM3.6666 13.3334C3.6666 12.7214 3.66682 12.1685 3.67155 11.6667H28.3283C28.3331 12.1685 28.3333 12.7214 28.3333 13.3334V18.6667C28.3333 20.5806 28.3311 21.9154 28.1957 22.9226C28.0642 23.9009 27.8236 24.419 27.4546 24.7881C27.0856 25.1571 26.5675 25.3977 25.5891 25.5292C24.582 25.6646 23.2472 25.6667 21.3333 25.6667H10.6666C8.75272 25.6667 7.4179 25.6646 6.41076 25.5292C5.4324 25.3977 4.9143 25.1571 4.54528 24.7881C4.17627 24.419 3.93567 23.9009 3.80413 22.9226C3.66873 21.9154 3.6666 20.5806 3.6666 18.6667V13.3334ZM7.99991 15.0001C7.44762 15.0001 6.99991 15.4478 6.99991 16.0001C6.99991 16.5524 7.44762 17.0001 7.99991 17.0001H13.3332C13.8855 17.0001 14.3332 16.5524 14.3332 16.0001C14.3332 15.4478 13.8855 15.0001 13.3332 15.0001H7.99991Z" fill="white"/>
</svg>
