<svg width="33" height="32" viewBox="0 0 33 32" fill="none" xmlns="http://www.w3.org/2000/svg">
<path fill-rule="evenodd" clip-rule="evenodd" d="M7.66669 9.33333C7.66669 6.9401 9.60679 5 12 5C14.3933 5 16.3334 6.9401 16.3334 9.33333C16.3334 11.7266 14.3933 13.6667 12 13.6667C9.60679 13.6667 7.66669 11.7266 7.66669 9.33333ZM12 3C8.50222 3 5.66669 5.83553 5.66669 9.33333C5.66669 12.8311 8.50222 15.6667 12 15.6667C15.4978 15.6667 18.3334 12.8311 18.3334 9.33333C18.3334 5.83553 15.4978 3 12 3ZM3.66669 25.3333C3.66669 22.9401 5.60679 21 8.00002 21H16C18.3933 21 20.3334 22.9401 20.3334 25.3333C20.3334 26.2538 19.5872 27 18.6667 27H5.33335C4.41288 27 3.66669 26.2538 3.66669 25.3333ZM8.00002 19C4.50222 19 1.66669 21.8355 1.66669 25.3333C1.66669 27.3584 3.30831 29 5.33335 29H18.6667C20.6917 29 22.3334 27.3584 22.3334 25.3333C22.3334 21.8355 19.4978 19 16 19H8.00002Z" fill="white"/>
<mask id="path-2-outside-1_2_761" maskUnits="userSpaceOnUse" x="19" y="3" width="14" height="14" fill="black">
<rect fill="white" x="19" y="3" width="14" height="14"/>
<path fill-rule="evenodd" clip-rule="evenodd" d="M29.4452 5.23931C29.7689 4.94501 30.2634 4.94502 30.5871 5.23933C30.5998 5.25087 30.6164 5.26724 30.6746 5.32546C30.7328 5.38368 30.7492 5.40025 30.7607 5.41295C31.055 5.7367 31.055 6.23109 30.7607 6.55484C30.7492 6.56753 30.7328 6.5841 30.6746 6.64232L30.1265 7.19037C29.3958 7.207 28.7931 6.60452 28.8093 5.87379L29.3577 5.32544C29.4159 5.26722 29.4325 5.25085 29.4452 5.23931ZM27.9461 5.29652L21.8922 11.3504L21.8423 11.4004C21.3613 11.8812 21.0506 12.1917 20.8342 12.574C20.6177 12.9563 20.5113 13.3825 20.3464 14.0423L20.3293 14.1108L20.0152 15.3673C19.9718 15.5408 20.0227 15.7244 20.1492 15.8509C20.2757 15.9774 20.4593 16.0283 20.6328 15.9849L21.8893 15.6708L21.9578 15.6537C22.6176 15.4888 23.0438 15.3824 23.4261 15.1659C23.8084 14.9495 24.1189 14.6388 24.5997 14.1578L24.6496 14.1079L31.3948 7.36257L31.4034 7.35403L31.4034 7.354C31.4491 7.30831 31.4843 7.27311 31.5144 7.23998C32.1619 6.52774 32.1619 5.44008 31.5145 4.72782C31.4844 4.6947 31.4492 4.65951 31.4035 4.61382L31.4034 4.61378L31.3949 4.60523L31.3863 4.59668C31.3406 4.55096 31.3054 4.51575 31.2723 4.48562C30.56 3.83814 29.4723 3.83812 28.76 4.48559C28.7269 4.51571 28.6917 4.55093 28.646 4.59665L28.646 4.59667L28.6374 4.60519L27.9698 5.27286C27.9616 5.28048 27.9537 5.28837 27.9461 5.29652ZM27.9464 6.73673C28.1812 7.33789 28.6622 7.81884 29.2634 8.0535L23.9294 13.3876C23.3815 13.9355 23.1714 14.1396 22.9242 14.2796C22.677 14.4195 22.3938 14.4947 21.6422 14.6826L21.2093 14.7908L21.3175 14.3579C21.5054 13.6062 21.5806 13.3231 21.7205 13.0759C21.8605 12.8286 22.0646 12.6185 22.6125 12.0707L27.9464 6.73673Z"/>
</mask>
<path fill-rule="evenodd" clip-rule="evenodd" d="M29.4452 5.23931C29.7689 4.94501 30.2634 4.94502 30.5871 5.23933C30.5998 5.25087 30.6164 5.26724 30.6746 5.32546C30.7328 5.38368 30.7492 5.40025 30.7607 5.41295C31.055 5.7367 31.055 6.23109 30.7607 6.55484C30.7492 6.56753 30.7328 6.5841 30.6746 6.64232L30.1265 7.19037C29.3958 7.207 28.7931 6.60452 28.8093 5.87379L29.3577 5.32544C29.4159 5.26722 29.4325 5.25085 29.4452 5.23931ZM27.9461 5.29652L21.8922 11.3504L21.8423 11.4004C21.3613 11.8812 21.0506 12.1917 20.8342 12.574C20.6177 12.9563 20.5113 13.3825 20.3464 14.0423L20.3293 14.1108L20.0152 15.3673C19.9718 15.5408 20.0227 15.7244 20.1492 15.8509C20.2757 15.9774 20.4593 16.0283 20.6328 15.9849L21.8893 15.6708L21.9578 15.6537C22.6176 15.4888 23.0438 15.3824 23.4261 15.1659C23.8084 14.9495 24.1189 14.6388 24.5997 14.1578L24.6496 14.1079L31.3948 7.36257L31.4034 7.35403L31.4034 7.354C31.4491 7.30831 31.4843 7.27311 31.5144 7.23998C32.1619 6.52774 32.1619 5.44008 31.5145 4.72782C31.4844 4.6947 31.4492 4.65951 31.4035 4.61382L31.4034 4.61378L31.3949 4.60523L31.3863 4.59668C31.3406 4.55096 31.3054 4.51575 31.2723 4.48562C30.56 3.83814 29.4723 3.83812 28.76 4.48559C28.7269 4.51571 28.6917 4.55093 28.646 4.59665L28.646 4.59667L28.6374 4.60519L27.9698 5.27286C27.9616 5.28048 27.9537 5.28837 27.9461 5.29652ZM27.9464 6.73673C28.1812 7.33789 28.6622 7.81884 29.2634 8.0535L23.9294 13.3876C23.3815 13.9355 23.1714 14.1396 22.9242 14.2796C22.677 14.4195 22.3938 14.4947 21.6422 14.6826L21.2093 14.7908L21.3175 14.3579C21.5054 13.6062 21.5806 13.3231 21.7205 13.0759C21.8605 12.8286 22.0646 12.6185 22.6125 12.0707L27.9464 6.73673Z" fill="white"/>
<path d="M30.5871 5.23933L30.4077 5.43665L30.4077 5.43665L30.5871 5.23933ZM29.4452 5.23931L29.2658 5.04199L29.2658 5.04199L29.4452 5.23931ZM30.6746 5.32546L30.8632 5.1369L30.8632 5.1369L30.6746 5.32546ZM30.7607 5.41295L30.5634 5.59231V5.59231L30.7607 5.41295ZM30.7607 6.55484L30.958 6.73421L30.958 6.73421L30.7607 6.55484ZM30.6746 6.64232L30.8631 6.83088L30.8631 6.83088L30.6746 6.64232ZM30.1265 7.19037L30.1326 7.45697C30.2012 7.45541 30.2666 7.42746 30.3151 7.37893L30.1265 7.19037ZM28.8093 5.87379L28.6208 5.68523C28.5722 5.73379 28.5443 5.7992 28.5427 5.86785L28.8093 5.87379ZM29.3577 5.32544L29.5463 5.514L29.5463 5.514L29.3577 5.32544ZM21.8922 11.3504L22.0808 11.539L22.0808 11.539L21.8922 11.3504ZM27.9461 5.29652L28.1348 5.48519L28.1407 5.47881L27.9461 5.29652ZM21.8423 11.4004L22.0308 11.589L22.0308 11.5889L21.8423 11.4004ZM20.8342 12.574L20.6021 12.4426H20.6021L20.8342 12.574ZM20.3464 14.0423L20.6052 14.1069L20.6052 14.1069L20.3464 14.0423ZM20.3293 14.1108L20.588 14.1755L20.588 14.1755L20.3293 14.1108ZM20.0152 15.3673L20.2739 15.432H20.2739L20.0152 15.3673ZM20.6328 15.9849L20.5682 15.7262H20.5682L20.6328 15.9849ZM21.8893 15.6708L21.8246 15.4121L21.8246 15.4121L21.8893 15.6708ZM21.9578 15.6537L21.8931 15.3949L21.8931 15.3949L21.9578 15.6537ZM23.4261 15.1659L23.5575 15.398H23.5575L23.4261 15.1659ZM24.5997 14.1578L24.4111 13.9693L24.4111 13.9693L24.5997 14.1578ZM24.6496 14.1079L24.4611 13.9193L24.4611 13.9193L24.6496 14.1079ZM31.3948 7.36257L31.2063 7.174L31.2063 7.17401L31.3948 7.36257ZM31.4034 7.35403L31.5919 7.54261L31.5919 7.54259L31.4034 7.35403ZM31.4034 7.354L31.2149 7.16542L31.2148 7.16544L31.4034 7.354ZM31.5144 7.23998L31.3171 7.06061L31.3171 7.06061L31.5144 7.23998ZM31.5145 4.72782L31.7118 4.54846V4.54846L31.5145 4.72782ZM31.4035 4.61382L31.2113 4.79882L31.2149 4.8024L31.4035 4.61382ZM31.4034 4.61378L31.5955 4.42877L31.592 4.42521L31.4034 4.61378ZM31.3949 4.60523L31.2063 4.79377L31.2063 4.7938L31.3949 4.60523ZM31.3863 4.59668L31.1977 4.78521L31.1977 4.78522L31.3863 4.59668ZM31.2723 4.48562L31.0929 4.68294L31.0929 4.68294L31.2723 4.48562ZM28.76 4.48559L28.9394 4.68291L28.9394 4.68291L28.76 4.48559ZM28.646 4.59665L28.8345 4.78522L28.8346 4.78519L28.646 4.59665ZM28.646 4.59667L28.4574 4.40811L28.4574 4.40812L28.646 4.59667ZM28.6374 4.60519L28.826 4.79375L28.826 4.79374L28.6374 4.60519ZM27.9698 5.27286L28.1522 5.46759L28.1583 5.46142L27.9698 5.27286ZM29.2634 8.0535L29.452 8.24206C29.5157 8.17839 29.5429 8.0869 29.5244 7.99878C29.5059 7.91067 29.4443 7.83782 29.3604 7.80508L29.2634 8.0535ZM27.9464 6.73673L28.1948 6.63972C28.1621 6.55586 28.0892 6.49419 28.0011 6.47573C27.913 6.45727 27.8215 6.48451 27.7578 6.54817L27.9464 6.73673ZM23.9294 13.3876L24.118 13.5762L23.9294 13.3876ZM22.9242 14.2796L23.0556 14.5116L22.9242 14.2796ZM21.6422 14.6826L21.5775 14.4239L21.5775 14.4239L21.6422 14.6826ZM21.2093 14.7908L20.9506 14.7262C20.9278 14.817 20.9545 14.9132 21.0207 14.9794C21.0869 15.0456 21.1831 15.0723 21.2739 15.0495L21.2093 14.7908ZM21.3175 14.3579L21.0588 14.2932L21.3175 14.3579ZM21.7205 13.0759L21.9526 13.2072H21.9526L21.7205 13.0759ZM22.6125 12.0707L22.4239 11.8821L22.6125 12.0707ZM30.7665 5.04201C30.341 4.65524 29.6913 4.65523 29.2658 5.04199L29.6246 5.43664C29.8466 5.23479 30.1857 5.2348 30.4077 5.43665L30.7665 5.04201ZM30.8632 5.1369C30.8074 5.08115 30.7851 5.05896 30.7665 5.04201L30.4077 5.43665C30.4145 5.44278 30.4253 5.45332 30.486 5.51402L30.8632 5.1369ZM30.9581 5.23358C30.9411 5.21494 30.9189 5.19265 30.8632 5.1369L30.486 5.51402C30.5467 5.57471 30.5573 5.58556 30.5634 5.59231L30.9581 5.23358ZM30.958 6.73421C31.3448 6.30875 31.3448 5.65904 30.9581 5.23358L30.5634 5.59231C30.7652 5.81436 30.7652 6.15343 30.5634 6.37547L30.958 6.73421ZM30.8631 6.83088C30.9189 6.77514 30.9411 6.75285 30.958 6.73421L30.5634 6.37546C30.5573 6.38221 30.5467 6.39307 30.486 6.45376L30.8631 6.83088ZM30.3151 7.37893L30.8631 6.83088L30.486 6.45376L29.938 7.00181L30.3151 7.37893ZM28.5427 5.86785C28.5231 6.75052 29.2499 7.47706 30.1326 7.45697L30.1205 6.92378C29.5417 6.93695 29.0631 6.45852 29.0759 5.87973L28.5427 5.86785ZM29.1691 5.13688L28.6208 5.68523L28.9979 6.06235L29.5463 5.514L29.1691 5.13688ZM29.2658 5.04199C29.2472 5.05894 29.2249 5.08113 29.1691 5.13688L29.5463 5.514C29.607 5.45331 29.6178 5.44277 29.6246 5.43663L29.2658 5.04199ZM22.0808 11.539L28.1347 5.48508L27.7575 5.10796L21.7037 11.1619L22.0808 11.539ZM22.0308 11.5889L22.0808 11.539L21.7037 11.1618L21.6537 11.2118L22.0308 11.5889ZM21.0662 12.7054C21.2611 12.3611 21.5421 12.0774 22.0308 11.589L21.6538 11.2118C21.1804 11.6849 20.8401 12.0223 20.6021 12.4426L21.0662 12.7054ZM20.6052 14.1069C20.7726 13.4366 20.8713 13.0497 21.0662 12.7054L20.6021 12.4426C20.3641 12.863 20.2499 13.3283 20.0877 13.9777L20.6052 14.1069ZM20.588 14.1755L20.6052 14.1069L20.0877 13.9777L20.0706 14.0462L20.588 14.1755ZM20.2739 15.432L20.588 14.1755L20.0706 14.0461L19.7565 15.3026L20.2739 15.432ZM20.3377 15.6624C20.2775 15.6021 20.2533 15.5146 20.2739 15.432L19.7565 15.3026C19.6904 15.567 19.7679 15.8468 19.9606 16.0395L20.3377 15.6624ZM20.5682 15.7262C20.4855 15.7469 20.398 15.7226 20.3377 15.6624L19.9606 16.0395C20.1534 16.2322 20.4331 16.3097 20.6975 16.2436L20.5682 15.7262ZM21.8246 15.4121L20.5682 15.7262L20.6975 16.2436L21.9539 15.9295L21.8246 15.4121ZM21.8931 15.3949L21.8246 15.4121L21.9539 15.9295L22.0224 15.9124L21.8931 15.3949ZM23.2947 14.9339C22.9504 15.1288 22.5635 15.2275 21.8931 15.3949L22.0224 15.9124C22.6717 15.7502 23.1371 15.636 23.5575 15.398L23.2947 14.9339ZM24.4111 13.9693C23.9226 14.4579 23.6389 14.739 23.2947 14.9339L23.5575 15.398C23.9778 15.16 24.3151 14.8197 24.7883 14.3463L24.4111 13.9693ZM24.4611 13.9193L24.4111 13.9693L24.7883 14.3463L24.8382 14.2964L24.4611 13.9193ZM31.2063 7.17401L24.4611 13.9193L24.8382 14.2964L31.5834 7.55113L31.2063 7.17401ZM31.2148 7.16546L31.2063 7.174L31.5834 7.55115L31.5919 7.54261L31.2148 7.16546ZM31.2148 7.16544L31.2148 7.16547L31.5919 7.54259L31.592 7.54257L31.2148 7.16544ZM31.3171 7.06061C31.2922 7.08803 31.262 7.11831 31.2149 7.16542L31.5919 7.54259C31.6362 7.4983 31.6765 7.45818 31.7118 7.41934L31.3171 7.06061ZM31.3171 4.90719C31.8721 5.51773 31.8721 6.45007 31.3171 7.06061L31.7118 7.41935C32.4516 6.6054 32.4517 5.36242 31.7118 4.54846L31.3171 4.90719ZM31.2149 4.8024C31.262 4.84949 31.2922 4.87977 31.3171 4.90719L31.7118 4.54846C31.6765 4.50963 31.6363 4.46952 31.592 4.42524L31.2149 4.8024ZM31.2113 4.79875L31.2114 4.79879L31.5955 4.42885L31.5955 4.42881L31.2113 4.79875ZM31.2063 4.7938L31.2149 4.80235L31.592 4.42521L31.5834 4.41666L31.2063 4.7938ZM31.1977 4.78522L31.2063 4.79377L31.5834 4.41668L31.5749 4.40813L31.1977 4.78522ZM31.0929 4.68294C31.1203 4.70788 31.1506 4.73808 31.1977 4.78521L31.5749 4.40815C31.5306 4.36383 31.4905 4.32361 31.4517 4.2883L31.0929 4.68294ZM28.9394 4.68291C29.55 4.12791 30.4824 4.12792 31.0929 4.68294L31.4517 4.2883C30.6377 3.54836 29.3946 3.54834 28.5807 4.28826L28.9394 4.68291ZM28.8346 4.78519C28.8817 4.73805 28.912 4.70785 28.9394 4.68291L28.5807 4.28826C28.5418 4.32357 28.5017 4.3638 28.4574 4.40812L28.8346 4.78519ZM28.8345 4.78523L28.8345 4.78522L28.4574 4.40809L28.4574 4.40811L28.8345 4.78523ZM28.826 4.79374L28.8345 4.78522L28.4574 4.40812L28.4489 4.41664L28.826 4.79374ZM28.1583 5.46142L28.826 4.79375L28.4489 4.41663L27.7812 5.0843L28.1583 5.46142ZM28.1407 5.47881C28.1444 5.47492 28.1482 5.47114 28.1521 5.46749L27.7875 5.07823C27.7751 5.08982 27.7631 5.10183 27.7515 5.11423L28.1407 5.47881ZM29.3604 7.80508C28.8286 7.59752 28.4025 7.17148 28.1948 6.63972L27.698 6.83374C27.9599 7.50431 28.4958 8.04016 29.1665 8.30191L29.3604 7.80508ZM24.118 13.5762L29.452 8.24206L29.0749 7.86494L23.7408 13.1991L24.118 13.5762ZM23.0556 14.5116C23.3418 14.3496 23.5808 14.1133 24.118 13.5762L23.7408 13.1991C23.1823 13.7576 23.0011 13.9296 22.7928 14.0475L23.0556 14.5116ZM21.7069 14.9413C22.4439 14.7571 22.7694 14.6737 23.0556 14.5116L22.7928 14.0475C22.5846 14.1654 22.3438 14.2323 21.5775 14.4239L21.7069 14.9413ZM21.2739 15.0495L21.7069 14.9413L21.5775 14.4239L21.1446 14.5321L21.2739 15.0495ZM21.0588 14.2932L20.9506 14.7262L21.468 14.8555L21.5762 14.4225L21.0588 14.2932ZM21.4885 12.9445C21.3264 13.2307 21.243 13.5562 21.0588 14.2932L21.5762 14.4225C21.7678 13.6562 21.8347 13.4155 21.9526 13.2072L21.4885 12.9445ZM22.4239 11.8821C21.8868 12.4193 21.6505 12.6583 21.4885 12.9445L21.9526 13.2072C22.0705 12.999 22.2425 12.8178 22.801 12.2592L22.4239 11.8821ZM27.7578 6.54817L22.4239 11.8821L22.801 12.2592L28.135 6.92529L27.7578 6.54817Z" fill="white" mask="url(#path-2-outside-1_2_761)"/>
</svg>
