<svg width="32" height="32" viewBox="0 0 32 32" fill="none" xmlns="http://www.w3.org/2000/svg">
<path fill-rule="evenodd" clip-rule="evenodd" d="M11.9268 4.33331L12 4.33331H20L20.0732 4.33331C21.8966 4.33329 23.3664 4.33326 24.5223 4.48868C25.7225 4.65003 26.733 4.99523 27.5355 5.79778C28.3381 6.60034 28.6833 7.61084 28.8446 8.81098C29.0001 9.96693 29 11.4367 29 13.2601V13.3333V26.6666C29 27.0132 28.8205 27.3351 28.5257 27.5173C28.2309 27.6995 27.8628 27.7161 27.5528 27.5611L24.4717 26.0205C23.3105 25.4399 22.8684 25.2257 22.4032 25.1159C21.9381 25.0061 21.4469 25 20.1486 25H12H11.9269C10.1034 25 8.63363 25 7.47767 24.8446C6.27752 24.6833 5.26702 24.3381 4.46447 23.5355C3.66191 22.733 3.31672 21.7225 3.15536 20.5223C2.99995 19.3664 2.99997 17.8966 3 16.0731V16V13.3333V13.2602C2.99997 11.4367 2.99995 9.96694 3.15536 8.81098C3.31672 7.61084 3.66191 6.60034 4.46447 5.79778C5.26702 4.99523 6.27752 4.65003 7.47767 4.48868C8.63362 4.33326 10.1034 4.33329 11.9268 4.33331ZM7.74416 6.47084C6.76579 6.60238 6.2477 6.84298 5.87868 7.21199C5.50966 7.58101 5.26907 8.09911 5.13753 9.07747C5.00212 10.0846 5 11.4194 5 13.3333V16C5 17.9139 5.00212 19.2487 5.13753 20.2558C5.26907 21.2342 5.50966 21.7523 5.87868 22.1213C6.2477 22.4903 6.76579 22.7309 7.74416 22.8625C8.7513 22.9979 10.0861 23 12 23H20.1486L20.2667 23C21.4073 22.9998 22.1437 22.9997 22.8627 23.1694C23.5818 23.3392 24.2405 23.6686 25.2605 24.1789L25.3661 24.2317L27 25.0486V13.3333C27 11.4194 26.9979 10.0846 26.8625 9.07747C26.7309 8.09911 26.4903 7.58101 26.1213 7.21199C25.7523 6.84298 25.2342 6.60238 24.2558 6.47084C23.2487 6.33544 21.9139 6.33331 20 6.33331H12C10.0861 6.33331 8.7513 6.33544 7.74416 6.47084ZM8.33333 10.6666C8.33333 10.1144 8.78104 9.66664 9.33333 9.66664H20C20.5523 9.66664 21 10.1144 21 10.6666C21 11.2189 20.5523 11.6666 20 11.6666H9.33333C8.78104 11.6666 8.33333 11.2189 8.33333 10.6666ZM9.33333 15C8.78104 15 8.33333 15.4477 8.33333 16C8.33333 16.5523 8.78104 17 9.33333 17H14.6667C15.2189 17 15.6667 16.5523 15.6667 16C15.6667 15.4477 15.2189 15 14.6667 15H9.33333Z" fill="white"/>
</svg>
