<svg width="32" height="32" viewBox="0 0 32 32" fill="none" xmlns="http://www.w3.org/2000/svg">
<path fill-rule="evenodd" clip-rule="evenodd" d="M10.6667 3C10.4015 3 10.1471 3.10536 9.95956 3.29289L3.29289 9.95956C3.10536 10.1471 3 10.4015 3 10.6667V21.3333C3 21.5986 3.10536 21.8529 3.29289 22.0404L9.95956 28.7071C10.1471 28.8946 10.4015 29 10.6667 29H21.3333C21.5986 29 21.8529 28.8946 22.0404 28.7071L28.7071 22.0404C28.8946 21.8529 29 21.5986 29 21.3333V10.6667C29 10.4015 28.8946 10.1471 28.7071 9.95956L22.0404 3.29289C21.8529 3.10536 21.5986 3 21.3333 3H10.6667ZM5 11.0809L11.0809 5H20.9191L27 11.0809V20.9191L20.9191 27H11.0809L5 20.9191V11.0809ZM16 9.6667C16.5523 9.6667 17 10.1144 17 10.6667V17.3334C17 17.8857 16.5523 18.3334 16 18.3334C15.4477 18.3334 15 17.8857 15 17.3334V10.6667C15 10.1144 15.4477 9.6667 16 9.6667ZM17.3334 21.3333C17.3334 22.0697 16.7364 22.6667 16 22.6667C15.2637 22.6667 14.6667 22.0697 14.6667 21.3333C14.6667 20.597 15.2637 20 16 20C16.7364 20 17.3334 20.597 17.3334 21.3333Z" fill="white"/>
</svg>
