<svg width="32" height="32" viewBox="0 0 32 32" fill="none" xmlns="http://www.w3.org/2000/svg">
<path fill-rule="evenodd" clip-rule="evenodd" d="M21.4608 5.08872C20.8167 5.00213 19.9533 5 18.668 5H5.33464C4.41416 5 3.66797 5.7462 3.66797 6.66667C3.66797 7.58714 4.41416 8.33334 5.33464 8.33334L16.0013 8.33334H21.3346L21.4078 8.33334H21.5334H22.9989C22.9932 7.57409 22.9745 7.00119 22.9126 6.54053C22.8299 5.92524 22.6869 5.66191 22.5131 5.48816C22.3394 5.3144 22.0761 5.17144 21.4608 5.08872ZM5.33464 3C3.30959 3 1.66797 4.64163 1.66797 6.66667V20V20.0732V20.0732C1.66794 21.8966 1.66792 23.3664 1.82333 24.5223C1.98469 25.7225 2.32988 26.733 3.13244 27.5355C3.93499 28.3381 4.94549 28.6833 6.14563 28.8446C7.3016 29.0001 8.77136 29 10.5948 29H10.668H21.3346H21.4078C23.2312 29 24.701 29.0001 25.857 28.8446C27.0571 28.6833 28.0676 28.3381 28.8702 27.5355C29.6727 26.733 30.0179 25.7225 30.1793 24.5223C30.2956 23.6569 30.3249 22.6156 30.3322 21.3816C30.3329 21.3656 30.3333 21.3495 30.3333 21.3333V21.1448C30.3346 20.8021 30.3346 20.445 30.3346 20.0732V20V17.3333V17.2601C30.3346 16.8884 30.3346 16.5313 30.3333 16.1886V16C30.3333 15.9838 30.3329 15.9677 30.3322 15.9517C30.3249 14.7177 30.2956 13.6764 30.1793 12.811C30.0179 11.6109 29.6727 10.6004 28.8702 9.7978C28.0676 8.99525 27.0571 8.65006 25.857 8.4887C25.5883 8.45258 25.3027 8.42486 24.9997 8.40358C24.9947 7.57979 24.9747 6.86896 24.8948 6.27403C24.7822 5.43697 24.5347 4.68124 23.9274 4.07395L23.2203 4.78105L23.9274 4.07394C23.3201 3.46665 22.5643 3.21909 21.7273 3.10655C20.9342 2.99993 19.9353 2.99996 18.7373 3H18.668H5.33464ZM28.3198 15C28.3034 14.2413 28.2691 13.6131 28.1971 13.0775C28.0656 12.0991 27.825 11.581 27.456 11.212C27.0869 10.843 26.5688 10.6024 25.5905 10.4709C24.5833 10.3355 23.2485 10.3333 21.3346 10.3333H16.0013L16.0003 10.3333H5.33464C4.73449 10.3333 4.16802 10.1892 3.66797 9.93353V20C3.66797 21.9139 3.67009 23.2487 3.8055 24.2558C3.93704 25.2342 4.17763 25.7523 4.54665 26.1213C4.91567 26.4903 5.43376 26.7309 6.41213 26.8625C7.41926 26.9979 8.75408 27 10.668 27H21.3346C23.2485 27 24.5833 26.9979 25.5905 26.8625C26.5688 26.7309 27.0869 26.4903 27.456 26.1213C27.825 25.7523 28.0656 25.2342 28.1971 24.2558C28.2691 23.7203 28.3034 23.092 28.3198 22.3333H26.6667C24.6416 22.3333 23 20.6917 23 18.6667C23 16.6416 24.6416 15 26.6667 15H28.3198ZM25 18.6667C25 17.7462 25.7462 17 26.6667 17H28.3333V20.3333H26.6667C25.7462 20.3333 25 19.5871 25 18.6667Z" fill="white"/>
</svg>
