<svg width="32" height="32" viewBox="0 0 32 32" fill="none" xmlns="http://www.w3.org/2000/svg">
<path fill-rule="evenodd" clip-rule="evenodd" d="M6.84275 6.10005C7.01117 5.87651 7.21005 5.67763 7.4336 5.50921C7.76626 5.25857 8.21736 5.09069 9.03427 4.9998C9.87084 4.90673 10.9621 4.90528 12.5272 4.90528C14.3831 4.90528 15.0849 4.91729 15.7182 5.12915C15.9097 5.1932 16.0964 5.27056 16.2771 5.36065C16.8747 5.65863 17.3794 6.14639 18.6917 7.45869L23.3879 12.1549C24.7412 13.5082 25.6836 14.4535 26.3 15.2614C26.8988 16.0463 27.095 16.5827 27.095 17.1046C27.095 17.6265 26.8988 18.163 26.3 18.9478C25.6836 19.7557 24.7412 20.701 23.3879 22.0544C22.0346 23.4077 21.0892 24.35 20.2813 24.9664C19.4965 25.5652 18.96 25.7615 18.4381 25.7615C17.9163 25.7615 17.3798 25.5652 16.595 24.9664C15.7871 24.35 14.8417 23.4077 13.4884 22.0544L8.79223 17.3582C7.47994 16.0459 6.99217 15.5411 6.69419 14.9436C6.6041 14.7629 6.52674 14.5761 6.46269 14.3847C6.25084 13.7514 6.23882 13.0496 6.23882 11.1937C6.23882 9.62858 6.24027 8.53729 6.33334 7.70073C6.42423 6.88382 6.59212 6.43272 6.84275 6.10005ZM6.23011 3.91183C5.85753 4.19253 5.52607 4.52399 5.24537 4.89657C4.69077 5.63269 4.45603 6.48709 4.34561 7.47958C4.23879 8.4397 4.2388 9.64255 4.23882 11.1343L4.23882 11.1937L4.2388 11.3647C4.23841 12.9901 4.23816 14.0392 4.56601 15.0192C4.65963 15.299 4.77269 15.572 4.90437 15.836C5.3655 16.7608 6.10751 17.5025 7.25709 18.6515L7.37802 18.7724L12.0742 23.4686L12.1259 23.5203C13.4153 24.8097 14.4545 25.849 15.3818 26.5565C16.3445 27.291 17.3032 27.7615 18.4381 27.7615C19.5731 27.7615 20.5318 27.291 21.4945 26.5565C22.4217 25.849 23.461 24.8097 24.7503 23.5203L24.8021 23.4686L24.8539 23.4168C26.1433 22.1275 27.1825 21.0882 27.89 20.1609C28.6246 19.1982 29.095 18.2396 29.095 17.1046C29.095 15.9696 28.6246 15.011 27.89 14.0483C27.1825 13.121 26.1433 12.0818 24.8539 10.7924L24.8021 10.7406L20.1059 6.04448L19.9851 5.92355L19.985 5.92354C18.836 4.77396 18.0943 4.03196 17.1696 3.57083C16.9055 3.43915 16.6325 3.32609 16.3527 3.23247C15.3727 2.90462 14.3236 2.90487 12.6982 2.90525L12.5272 2.90528L12.4679 2.90528C10.9761 2.90526 9.77324 2.90525 8.81312 3.01207C7.82063 3.12249 6.96623 3.35723 6.23011 3.91183ZM12.0585 12.3909C12.0585 11.4704 12.8047 10.7242 13.7252 10.7242C14.6457 10.7242 15.3919 11.4704 15.3919 12.3909C15.3919 13.3114 14.6457 14.0576 13.7252 14.0576C12.8047 14.0576 12.0585 13.3114 12.0585 12.3909ZM13.7252 8.72424C11.7002 8.72424 10.0585 10.3659 10.0585 12.3909C10.0585 14.416 11.7002 16.0576 13.7252 16.0576C15.7502 16.0576 17.3919 14.416 17.3919 12.3909C17.3919 10.3659 15.7502 8.72424 13.7252 8.72424Z" fill="white"/>
</svg>
