<svg width="32" height="32" viewBox="0 0 32 32" fill="none" xmlns="http://www.w3.org/2000/svg">
<path fill-rule="evenodd" clip-rule="evenodd" d="M3.49807 3.13509C3.80639 2.95617 4.18664 2.9549 4.49614 3.13176L8.66667 5.51492L12.8372 3.13176C13.1446 2.95608 13.522 2.95608 13.8295 3.13176L18 5.51492L22.1705 3.13176C22.48 2.9549 22.8603 2.95617 23.1686 3.13509C23.4769 3.31401 23.6667 3.64353 23.6667 4V15H28.0013C28.5536 15 29.0013 15.4477 29.0013 16V25.3333C29.0013 27.3584 27.3597 29 25.3346 29H25.3338H25.3333H12H11.9268C10.1034 29 8.63362 29 7.47767 28.8446C6.27752 28.6833 5.26702 28.3381 4.46447 27.5355C3.66191 26.733 3.31672 25.7225 3.15536 24.5223C2.99995 23.3664 2.99997 21.8966 3 20.0732V20V4C3 3.64353 3.18976 3.31401 3.49807 3.13509ZM22.0678 27C21.8122 26.5 21.668 25.9335 21.668 25.3333V16.0515C21.6671 16.0344 21.6667 16.0173 21.6667 16V5.72318L18.4961 7.53491C18.1887 7.71059 17.8113 7.71059 17.5039 7.53491L13.3333 5.15175L9.16281 7.53491C8.85537 7.71059 8.47796 7.71059 8.17053 7.53491L5 5.72318V20C5 21.9139 5.00212 23.2487 5.13753 24.2558C5.26907 25.2342 5.50966 25.7523 5.87868 26.1213C6.2477 26.4903 6.76579 26.7309 7.74416 26.8625C8.7513 26.9979 10.0861 27 12 27H22.0678ZM8.33203 12C8.33203 11.4477 8.77975 11 9.33203 11H14.6654C15.2177 11 15.6654 11.4477 15.6654 12C15.6654 12.5523 15.2177 13 14.6654 13H9.33203C8.77975 13 8.33203 12.5523 8.33203 12ZM13.332 16.3334C12.7797 16.3334 12.332 16.7811 12.332 17.3334C12.332 17.8857 12.7797 18.3334 13.332 18.3334H17.332C17.8843 18.3334 18.332 17.8857 18.332 17.3334C18.332 16.7811 17.8843 16.3334 17.332 16.3334H13.332ZM12.332 22.6666C12.332 22.1143 12.7797 21.6666 13.332 21.6666H17.332C17.8843 21.6666 18.332 22.1143 18.332 22.6666C18.332 23.2189 17.8843 23.6666 17.332 23.6666H13.332C12.7797 23.6666 12.332 23.2189 12.332 22.6666ZM23.668 25.3333V17H27.0013V25.3333C27.0013 26.2538 26.2551 27 25.3346 27C24.4142 27 23.668 26.2538 23.668 25.3333ZM10.6667 17.3333C10.6667 18.0697 10.0697 18.6667 9.33333 18.6667C8.59695 18.6667 8 18.0697 8 17.3333C8 16.597 8.59695 16 9.33333 16C10.0697 16 10.6667 16.597 10.6667 17.3333ZM9.33333 24C10.0697 24 10.6667 23.403 10.6667 22.6667C10.6667 21.9303 10.0697 21.3333 9.33333 21.3333C8.59695 21.3333 8 21.9303 8 22.6667C8 23.403 8.59695 24 9.33333 24Z" fill="white"/>
</svg>
