<svg width="24" height="24" viewBox="0 0 24 24" fill="none" xmlns="http://www.w3.org/2000/svg">
<path fill-rule="evenodd" clip-rule="evenodd" d="M5.13212 4.57505C5.25844 4.40738 5.4076 4.25823 5.57526 4.13191C5.82476 3.94393 6.16309 3.81802 6.77576 3.74986C7.40319 3.68005 8.22165 3.67896 9.3955 3.67896C10.7874 3.67896 11.3138 3.68798 11.7887 3.84686C11.9323 3.89491 12.0724 3.95292 12.2079 4.02049C12.6561 4.24398 13.0346 4.6098 14.0189 5.59402L17.541 9.11615C18.556 10.1311 19.2627 10.8402 19.725 11.4461C20.1741 12.0347 20.3213 12.4371 20.3213 12.8285C20.3213 13.2199 20.1741 13.6222 19.725 14.2108C19.2627 14.8168 18.556 15.5258 17.541 16.5408C16.526 17.5558 15.817 18.2625 15.211 18.7248C14.6224 19.1739 14.2201 19.3211 13.8287 19.3211C13.4373 19.3211 13.0349 19.1739 12.4463 18.7248C11.8404 18.2625 11.1314 17.5558 10.1164 16.5408L6.59424 13.0186C5.61001 12.0344 5.24419 11.6559 5.02071 11.2077C4.95314 11.0722 4.89512 10.9321 4.84708 10.7885C4.68819 10.3135 4.67918 9.78718 4.67918 8.39528C4.67918 7.22144 4.68026 6.40298 4.75007 5.77555C4.81823 5.16287 4.94415 4.82455 5.13212 4.57505ZM4.67265 2.93387C4.39321 3.1444 4.14462 3.393 3.93409 3.67243C3.51814 4.22452 3.34208 4.86532 3.25927 5.60969C3.17915 6.32978 3.17916 7.23191 3.17918 8.35073L3.17918 8.39528L3.17916 8.52353C3.17887 9.74256 3.17868 10.5294 3.42457 11.2644C3.49478 11.4743 3.57958 11.679 3.67834 11.877C4.02419 12.5706 4.58069 13.1269 5.44288 13.9886L5.53358 14.0793L9.0557 17.6014L9.0945 17.6402C10.0615 18.6073 10.841 19.3867 11.5364 19.9174C12.2585 20.4683 12.9774 20.8211 13.8287 20.8211C14.6799 20.8211 15.3989 20.4683 16.1209 19.9174C16.8164 19.3868 17.5958 18.6073 18.5628 17.6403L18.5628 17.6402L18.6016 17.6014L18.6404 17.5626L18.6405 17.5626C19.6075 16.5956 20.387 15.8162 20.9176 15.1207C21.4685 14.3987 21.8213 13.6797 21.8213 12.8285C21.8213 11.9772 21.4685 11.2583 20.9176 10.5362C20.387 9.84076 19.6075 9.06132 18.6405 8.09432L18.6404 8.09429L18.6016 8.05549L15.0795 4.53336L14.9888 4.44266C14.1271 3.58048 13.5708 3.02397 12.8772 2.67812C12.6792 2.57937 12.4745 2.49457 12.2646 2.42436C11.5296 2.17847 10.7428 2.17866 9.52373 2.17894L9.3955 2.17896H9.35098C8.23214 2.17895 7.33 2.17894 6.6099 2.25905C5.86553 2.34187 5.22474 2.51792 4.67265 2.93387ZM9.04298 9.29325C9.04298 8.60289 9.60263 8.04325 10.293 8.04325C10.9833 8.04325 11.543 8.60289 11.543 9.29325C11.543 9.9836 10.9833 10.5432 10.293 10.5432C9.60263 10.5432 9.04298 9.9836 9.04298 9.29325ZM10.293 6.54325C8.7742 6.54325 7.54298 7.77446 7.54298 9.29325C7.54298 10.812 8.7742 12.0432 10.293 12.0432C11.8118 12.0432 13.043 10.812 13.043 9.29325C13.043 7.77446 11.8118 6.54325 10.293 6.54325Z" fill="white"/>
</svg>
