<svg width="24" height="24" viewBox="0 0 24 24" fill="none" xmlns="http://www.w3.org/2000/svg">
<path fill-rule="evenodd" clip-rule="evenodd" d="M11.0007 4.45564C10.5148 5.06625 9.96958 6.00397 9.18736 7.35508L5.12515 14.3716C4.34012 15.7276 3.79629 16.6709 3.50769 17.3989C3.22157 18.1207 3.27108 18.425 3.38598 18.6243C3.50089 18.8237 3.73947 19.019 4.50748 19.133C5.28211 19.248 6.37098 19.25 7.93778 19.25H16.0622C17.629 19.25 18.7179 19.248 19.4925 19.133C20.2605 19.019 20.4991 18.8237 20.614 18.6243C20.7289 18.425 20.7784 18.1207 20.4923 17.3989C20.2037 16.6709 19.6599 15.7276 18.8748 14.3716L14.8126 7.35508C14.0304 6.00397 13.4852 5.06626 12.9993 4.45565C12.5177 3.8505 12.2299 3.74172 12 3.74172C11.7701 3.74172 11.4823 3.8505 11.0007 4.45564ZM9.82703 3.52159C10.4033 2.79754 11.0768 2.24172 12 2.24172C12.9232 2.24172 13.5967 2.79755 14.173 3.52159C14.7366 4.22979 15.3363 5.26581 16.0781 6.54703L16.1108 6.60353L20.173 13.6201L20.2057 13.6766L20.2057 13.6767C20.9503 14.9626 21.5522 16.0022 21.8867 16.8461C22.2286 17.7086 22.3757 18.5718 21.9135 19.3736C21.4513 20.1753 20.6305 20.4805 19.7128 20.6167C18.8148 20.75 17.6135 20.75 16.1276 20.75H16.0622H7.93778H7.87244C6.38647 20.75 5.1852 20.75 4.28721 20.6167C3.36947 20.4805 2.54874 20.1753 2.0865 19.3736C1.62425 18.5718 1.77135 17.7086 2.11327 16.8461C2.44782 16.0022 3.04972 14.9626 3.79426 13.6766L3.82701 13.6201L7.88922 6.60352L7.92194 6.54702L7.92194 6.547L7.92195 6.54699C8.66367 5.26579 9.26343 4.22979 9.82703 3.52159ZM11.9999 8.25002C12.4142 8.25002 12.7499 8.58581 12.7499 9.00002V13C12.7499 13.4142 12.4142 13.75 11.9999 13.75C11.5857 13.75 11.2499 13.4142 11.2499 13V9.00002C11.2499 8.58581 11.5857 8.25002 11.9999 8.25002ZM11.9999 17C12.5522 17 12.9999 16.5523 12.9999 16C12.9999 15.4477 12.5522 15 11.9999 15C11.4476 15 10.9999 15.4477 10.9999 16C10.9999 16.5523 11.4476 17 11.9999 17Z" fill="white"/>
</svg>
