<svg width="24" height="24" viewBox="0 0 24 24" fill="none" xmlns="http://www.w3.org/2000/svg">
<path fill-rule="evenodd" clip-rule="evenodd" d="M8.94513 3.24998L9 3.24998H15L15.0549 3.24998C16.4225 3.24996 17.5248 3.24994 18.3918 3.3665C19.2919 3.48752 20.0497 3.74641 20.6517 4.34833C21.2536 4.95024 21.5125 5.70812 21.6335 6.60823C21.75 7.4752 21.75 8.57752 21.75 9.94511V9.99998V20C21.75 20.2599 21.6154 20.5013 21.3943 20.638C21.1732 20.7746 20.8971 20.787 20.6646 20.6708L18.3538 19.5154C17.4828 19.0799 17.1513 18.9193 16.8024 18.8369C16.4536 18.7546 16.0852 18.75 15.1115 18.75H9H8.94513H8.94512H8.94511C7.57753 18.75 6.47521 18.75 5.60825 18.6335C4.70814 18.5124 3.95027 18.2535 3.34835 17.6516C2.74643 17.0497 2.48754 16.2918 2.36652 15.3917C2.24996 14.5248 2.24998 13.4224 2.25 12.0549V12V9.99998V9.9451C2.24998 8.57751 2.24996 7.47519 2.36652 6.60823C2.48754 5.70812 2.74643 4.95024 3.34835 4.34833C3.95027 3.74641 4.70814 3.48752 5.60825 3.3665C6.47522 3.24994 7.57754 3.24996 8.94513 3.24998ZM5.80812 4.85313C5.07435 4.95178 4.68577 5.13222 4.40901 5.40899C4.13225 5.68575 3.9518 6.07432 3.85315 6.8081C3.75159 7.56345 3.75 8.56456 3.75 9.99998V12C3.75 13.4354 3.75159 14.4365 3.85315 15.1919C3.9518 15.9256 4.13225 16.3142 4.40901 16.591C4.68577 16.8677 5.07435 17.0482 5.80812 17.1468C6.56347 17.2484 7.56458 17.25 9 17.25H15.1115L15.2 17.25C16.0554 17.2498 16.6077 17.2497 17.1471 17.377C17.6864 17.5044 18.1803 17.7514 18.9454 18.1341L19.0246 18.1737L20.25 18.7865V9.99998C20.25 8.56456 20.2484 7.56345 20.1469 6.8081C20.0482 6.07432 19.8678 5.68575 19.591 5.40899C19.3142 5.13222 18.9257 4.95178 18.1919 4.85313C17.4365 4.75157 16.4354 4.74998 15 4.74998H9C7.56458 4.74998 6.56347 4.75157 5.80812 4.85313ZM6.25005 7.99995C6.25005 7.58574 6.58584 7.24995 7.00005 7.24995H15.0001C15.4143 7.24995 15.7501 7.58574 15.7501 7.99995C15.7501 8.41417 15.4143 8.74995 15.0001 8.74995H7.00005C6.58584 8.74995 6.25005 8.41417 6.25005 7.99995ZM7.00005 11.25C6.58584 11.25 6.25005 11.5858 6.25005 12C6.25005 12.4142 6.58584 12.75 7.00005 12.75H11.0001C11.4143 12.75 11.7501 12.4142 11.7501 12C11.7501 11.5858 11.4143 11.25 11.0001 11.25H7.00005Z" fill="white"/>
</svg>
