<svg width="23" height="20" viewBox="0 0 23 20" fill="none" xmlns="http://www.w3.org/2000/svg">
<path fill-rule="evenodd" clip-rule="evenodd" d="M8 1.75C6.20507 1.75 4.75 3.20507 4.75 5C4.75 6.79493 6.20507 8.25 8 8.25C9.79493 8.25 11.25 6.79493 11.25 5C11.25 3.20507 9.79493 1.75 8 1.75ZM3.25 5C3.25 2.37665 5.37665 0.25 8 0.25C10.6234 0.25 12.75 2.37665 12.75 5C12.75 7.62335 10.6234 9.75 8 9.75C5.37665 9.75 3.25 7.62335 3.25 5ZM5 13.75C3.20507 13.75 1.75 15.2051 1.75 17C1.75 17.6904 2.30964 18.25 3 18.25H13C13.6904 18.25 14.25 17.6904 14.25 17C14.25 15.2051 12.7949 13.75 11 13.75H5ZM0.25 17C0.25 14.3766 2.37665 12.25 5 12.25H11C13.6234 12.25 15.75 14.3766 15.75 17C15.75 18.5188 14.5188 19.75 13 19.75H3C1.48122 19.75 0.25 18.5188 0.25 17ZM19.75 5C19.75 4.58579 19.4142 4.25 19 4.25C18.5858 4.25 18.25 4.58579 18.25 5V7.25H16C15.5858 7.25 15.25 7.58579 15.25 8C15.25 8.41422 15.5858 8.75 16 8.75H18.25V11C18.25 11.4142 18.5858 11.75 19 11.75C19.4142 11.75 19.75 11.4142 19.75 11V8.75H22C22.4142 8.75 22.75 8.41422 22.75 8C22.75 7.58579 22.4142 7.25 22 7.25H19.75V5Z" fill="white"/>
</svg>
