<svg width="24" height="24" viewBox="0 0 24 24" fill="none" xmlns="http://www.w3.org/2000/svg">
<path fill-rule="evenodd" clip-rule="evenodd" d="M5.46166 2.24996C5.48319 2.24997 5.50497 2.24998 5.52703 2.24998C5.54737 2.24998 5.56743 2.24998 5.58723 2.24997C5.91937 2.24982 6.1777 2.24971 6.4164 2.29183C7.31582 2.45055 8.07775 3.04545 8.44987 3.87952C8.54863 4.10087 8.61118 4.35152 8.69159 4.67378C8.69638 4.69299 8.70124 4.71246 8.70617 4.73219L9.11979 6.38666L9.12884 6.42285C9.26893 6.98313 9.38782 7.45864 9.445 7.86151C9.50588 8.2904 9.50764 8.70015 9.37074 9.12067C9.23383 9.54119 8.99117 9.87136 8.68946 10.1822C8.40605 10.4742 8.03 10.7886 7.5869 11.159L7.55829 11.1829L5.94606 12.5308C7.24937 14.8902 9.10985 16.7507 11.4692 18.054L12.8171 16.4417L12.841 16.4131C13.2115 15.97 13.5258 15.594 13.8178 15.3106C14.1287 15.0089 14.4588 14.7662 14.8794 14.6293C15.2999 14.4924 15.7096 14.4941 16.1385 14.555C16.5414 14.6122 17.0169 14.7311 17.5772 14.8712L17.6134 14.8802L19.2678 15.2939C19.2876 15.2988 19.307 15.3036 19.3262 15.3084C19.6485 15.3889 19.8992 15.4514 20.1205 15.5502C20.9546 15.9223 21.5495 16.6842 21.7082 17.5836C21.7503 17.8223 21.7502 18.0807 21.7501 18.4128C21.7501 18.4326 21.75 18.4527 21.75 18.473C21.75 18.4951 21.7501 18.5168 21.7501 18.5384C21.7503 18.9214 21.7504 19.2236 21.6839 19.5215C21.4418 20.6054 20.4384 21.5156 19.3361 21.6514C19.0337 21.6886 18.7738 21.6631 18.4506 21.6314C18.4351 21.6299 18.4195 21.6284 18.4038 21.6268C15.7641 21.3693 13.3885 20.7099 11.3192 19.6701C8.24504 18.1255 5.8745 15.755 4.32988 12.6808C3.29017 10.6116 2.63072 8.2359 2.37318 5.59624C2.37164 5.58049 2.37012 5.5649 2.3686 5.54945C2.33691 5.22622 2.31144 4.96636 2.34867 4.66395C2.48439 3.56158 3.3946 2.55825 4.47857 2.31612C4.77642 2.24959 5.07865 2.24976 5.46166 2.24996ZM12.8577 18.7318C14.5381 19.452 16.4399 19.9281 18.5494 20.1339C18.9359 20.1716 19.0317 20.1775 19.1528 20.1626C19.6256 20.1044 20.1161 19.6593 20.22 19.1945C20.2459 19.0784 20.25 18.9514 20.25 18.473C20.25 18.0524 20.2473 17.9363 20.231 17.8443C20.1589 17.4355 19.8885 17.0891 19.5093 16.92C19.424 16.8819 19.3121 16.8511 18.904 16.7491L17.2496 16.3354C16.6433 16.1839 16.244 16.085 15.9277 16.0401C15.6289 15.9977 15.4698 16.0146 15.3437 16.0556C15.2177 16.0966 15.0791 16.1767 14.8625 16.3869C14.6333 16.6094 14.3687 16.9244 13.9679 17.4038L12.8577 18.7318ZM5.26822 11.1423L6.59618 10.0321C7.07559 9.63131 7.39063 9.3667 7.6131 9.13749C7.82334 8.92088 7.90338 8.78236 7.94442 8.65631C7.98546 8.53026 8.00231 8.37116 7.95989 8.07229C7.915 7.75605 7.81613 7.35668 7.66458 6.75046L7.25096 5.09599C7.14894 4.68791 7.11808 4.57598 7.08003 4.49068C6.91088 4.11156 6.56455 3.84115 6.15572 3.76901C6.06374 3.75277 5.94766 3.74998 5.52703 3.74998C5.0486 3.74998 4.92166 3.75412 4.80557 3.78005C4.34068 3.88389 3.89564 4.37446 3.83743 4.84724C3.82252 4.96837 3.82838 5.0641 3.86609 5.45058C4.07191 7.56011 4.54807 9.46188 5.26822 11.1423Z" fill="#321FDB"/>
</svg>
