<svg width="32" height="32" viewBox="0 0 32 32" fill="none" xmlns="http://www.w3.org/2000/svg">
<path fill-rule="evenodd" clip-rule="evenodd" d="M14.6676 5.94087C14.0197 6.75501 13.2928 8.0053 12.2498 9.80679L6.83355 19.1622C5.78685 20.9701 5.06174 22.2279 4.67694 23.1986C4.29544 24.1609 4.36145 24.5667 4.51466 24.8325C4.66787 25.0982 4.98598 25.3586 6.00999 25.5107C7.04284 25.664 8.49467 25.6667 10.5837 25.6667H21.4163C23.5054 25.6667 24.9572 25.664 25.99 25.5107C27.014 25.3586 27.3321 25.0982 27.4854 24.8325C27.6386 24.5667 27.7046 24.1609 27.3231 23.1986C26.9383 22.2279 26.2132 20.9701 25.1665 19.1622L19.7502 9.80678C18.7072 8.0053 17.9803 6.75501 17.3324 5.94086C16.6903 5.134 16.3065 4.98897 16 4.98897C15.6935 4.98897 15.3098 5.134 14.6676 5.94087ZM13.1027 4.69546C13.871 3.73006 14.769 2.98897 16 2.98897C17.231 2.98897 18.129 3.73006 18.8973 4.69546C19.6487 5.6397 20.4484 7.021 21.4373 8.72922L21.4374 8.7293L21.4374 8.72932L21.481 8.80471L26.8973 18.1601L26.9409 18.2354L26.941 18.2355C27.9337 19.9501 28.7362 21.3363 29.1823 22.4615C29.6382 23.6115 29.8343 24.7625 29.218 25.8314C28.6017 26.9004 27.5074 27.3073 26.2837 27.489C25.0864 27.6667 23.4847 27.6667 21.5034 27.6667H21.4163H10.5837H10.4966C8.5153 27.6667 6.91362 27.6667 5.7163 27.489C4.49264 27.3073 3.39834 26.9004 2.78201 25.8314C2.16569 24.7625 2.36182 23.6115 2.8177 22.4615C3.26378 21.3363 4.0663 19.9502 5.05903 18.2355L5.05904 18.2355L5.10269 18.1601L10.519 8.80471L10.5626 8.72938L10.5626 8.72937L10.5626 8.72936C11.5516 7.02107 12.3513 5.63973 13.1027 4.69546ZM16 11C16.5523 11 17 11.4477 17 12V17.3334C17 17.8856 16.5523 18.3334 16 18.3334C15.4478 18.3334 15 17.8856 15 17.3334V12C15 11.4477 15.4478 11 16 11ZM16.0001 22.6667C16.7365 22.6667 17.3334 22.0697 17.3334 21.3334C17.3334 20.597 16.7365 20 16.0001 20C15.2637 20 14.6667 20.597 14.6667 21.3334C14.6667 22.0697 15.2637 22.6667 16.0001 22.6667Z" fill="white"/>
</svg>
