<svg width="32" height="32" viewBox="0 0 32 32" fill="none" xmlns="http://www.w3.org/2000/svg">
<mask id="path-1-outside-1_2_766" maskUnits="userSpaceOnUse" x="0.333313" y="4.95586" width="31" height="22" fill="black">
<rect fill="white" x="0.333313" y="4.95586" width="31" height="22"/>
<path d="M7.84884 8.62073C7.96327 8.62073 8.06101 8.62073 8.15875 8.62073C9.8378 8.62073 11.5169 8.6247 13.1959 8.61358C13.3596 8.61278 13.5344 8.53888 13.683 8.45862C14.1963 8.1805 14.685 7.85232 15.2111 7.60201C16.1384 7.1602 17.088 7.1745 18.0408 7.5591C19.7333 8.24169 21.4299 8.91395 23.1248 9.59018C23.2337 9.63388 23.3441 9.67282 23.4665 9.7197C23.511 9.51786 23.5309 9.33113 23.5936 9.15949C23.7414 8.7574 24.0235 8.47054 24.4224 8.31241C26.2779 7.57658 28.2049 7.26986 30.1962 7.37872C30.6349 7.40256 30.6738 7.45659 30.6738 7.90874C30.6738 11.7842 30.6738 15.6604 30.6738 19.5358C30.6738 20.0165 30.6301 20.0594 30.143 20.0594C29.5764 20.0594 29.0106 20.0594 28.4441 20.0594C27.5843 20.0586 27.129 19.7487 26.8047 18.9469C26.7793 18.8834 26.7499 18.8206 26.7475 18.8142C26.2445 19.1655 25.7399 19.5183 25.2171 19.8846C25.6478 21.4214 24.1539 22.557 22.8046 21.9252C22.741 22.5927 22.4581 23.1315 21.8574 23.4493C21.2694 23.7608 20.6726 23.7203 20.0925 23.3969C19.8676 24.7581 18.6153 25.3938 17.4067 24.7374C17.1985 25.5424 16.7749 25.9596 16.0613 26.0517C15.668 26.1026 15.312 25.9921 14.9965 25.7609C11.5915 23.2666 8.3574 20.5767 5.48879 17.4681C5.42204 17.3958 5.35052 17.3291 5.25199 17.2313C5.20431 17.368 5.16378 17.4824 5.12485 17.5969C4.90394 18.2493 4.40809 18.6267 3.72233 18.6394C3.07709 18.6513 2.43105 18.645 1.78502 18.6434C1.39247 18.6426 1.33367 18.583 1.33367 18.1936C1.33287 16.6536 1.33367 15.1129 1.33367 13.5729C1.33367 11.208 1.33367 8.84243 1.33367 6.47761C1.33367 6.04454 1.37499 6.00321 1.80329 5.97699C3.5491 5.86972 5.22259 6.17168 6.82854 6.863C7.62476 7.20549 7.92989 7.71088 7.84964 8.62311L7.84884 8.62073ZM12.7787 9.22067C11.0846 9.22067 9.46512 9.22306 7.84646 9.2167C7.66925 9.2167 7.63667 9.31444 7.59694 9.44476C6.89926 11.7516 6.19839 14.0576 5.50627 16.366C5.47925 16.4558 5.50786 16.5996 5.56666 16.6711C5.79313 16.9469 6.03947 17.2075 6.28501 17.4673C9.01615 20.3598 12.0675 22.8828 15.2635 25.2372C15.7419 25.5901 16.256 25.5535 16.5985 25.1546C16.941 24.7557 16.8957 24.2455 16.4746 23.8236C15.7308 23.0782 14.9854 22.3345 14.2401 21.5899C14.1836 21.5335 14.1256 21.4794 14.0724 21.4198C13.9484 21.2816 13.9294 21.1354 14.0676 20.9979C14.2059 20.8604 14.3505 20.8779 14.488 21.0066C14.546 21.0615 14.6024 21.1171 14.6588 21.1727C15.61 22.1183 16.5588 23.0663 17.5123 24.0095C17.9836 24.476 18.6653 24.4951 19.1167 24.066C19.5792 23.6257 19.5824 22.9352 19.1191 22.4401C18.8608 22.1644 18.5946 21.8966 18.3316 21.6264C17.7221 20.9995 17.1111 20.3741 16.504 19.7456C16.291 19.5254 16.314 19.2569 16.5628 19.21C16.6764 19.1885 16.848 19.2712 16.9378 19.3609C17.6244 20.0507 18.2974 20.7547 18.9753 21.454C19.3901 21.8823 19.7977 22.3178 20.222 22.7357C20.5542 23.0631 20.9642 23.1505 21.406 23.0099C21.8415 22.8708 22.0982 22.553 22.18 22.1088C22.2603 21.6717 22.0966 21.3134 21.7827 21.0106C20.7322 19.9959 19.6849 18.9787 18.6359 17.9624C18.5787 17.9068 18.5199 17.8535 18.4659 17.7955C18.338 17.6581 18.3102 17.4856 18.4635 17.3823C18.5565 17.3195 18.7289 17.3466 18.8561 17.3744C18.9308 17.3911 18.9888 17.488 19.0531 17.55C20.288 18.7451 21.5212 19.9426 22.7585 21.1362C23.271 21.6312 23.96 21.6399 24.3978 21.1671C24.8357 20.6935 24.7935 20.0229 24.2794 19.5509C21.8264 17.3013 19.3694 15.0564 16.918 12.806C16.786 12.6853 16.6684 12.6519 16.4928 12.6972C15.6505 12.9149 14.9544 13.3837 14.3346 13.9678C13.8769 14.3993 13.3389 14.6544 12.7398 14.7831C11.2713 15.0993 10.2454 14.0854 10.576 12.6241C10.673 12.1966 10.8454 11.7667 11.0727 11.3924C11.3905 10.8687 11.7854 10.3912 12.1613 9.90485C12.3345 9.68076 12.5411 9.48211 12.7787 9.22067ZM16.6827 7.82053C16.0598 7.85629 15.521 8.08117 14.9989 8.35532C13.4359 9.17617 12.3123 10.4388 11.4358 11.9399C11.1934 12.3547 11.0647 12.8164 11.11 13.3106C11.1561 13.8113 11.4453 14.1434 11.9412 14.2173C12.6659 14.3254 13.3008 14.0886 13.834 13.615C14.6231 12.9125 15.4614 12.3166 16.5191 12.0933C16.7916 12.036 16.9998 12.0813 17.2183 12.2832C19.6865 14.5582 22.1665 16.8205 24.637 19.0932C24.8007 19.2433 24.9405 19.2712 25.1376 19.1988C25.6215 19.0208 25.9775 18.6863 26.301 18.3001C26.4392 18.1356 26.4511 17.9878 26.3764 17.7868C25.4984 15.4259 24.6322 13.0611 23.751 10.7019C23.7001 10.566 23.5627 10.4182 23.43 10.3641C21.5554 9.60607 19.6769 8.85673 17.7921 8.1217C17.4369 7.98343 17.053 7.91907 16.6827 7.81974V7.82053ZM30.0619 19.4619V7.96118C28.2605 7.88569 26.537 8.14236 24.8706 8.77091C24.1046 9.06016 23.9282 9.44079 24.2063 10.1981C24.6926 11.5195 25.1781 12.8418 25.6652 14.1633C26.235 15.708 26.8079 17.2512 27.3745 18.7976C27.5096 19.1655 27.744 19.4349 28.1397 19.4531C28.7723 19.4833 29.408 19.4611 30.0619 19.4611V19.4619ZM1.93679 18.0578C2.51846 18.0578 3.06437 18.0625 3.61028 18.0562C4.15778 18.0498 4.42716 17.848 4.58847 17.3195C5.46813 14.4358 6.34619 11.5521 7.22108 8.66761C7.40226 8.06925 7.20599 7.6783 6.62749 7.42799C5.61831 6.99094 4.56543 6.71441 3.4744 6.59998C2.96743 6.54674 2.45489 6.54674 1.93679 6.52211V18.0578Z"/>
</mask>
<path d="M7.84884 8.62073C7.96327 8.62073 8.06101 8.62073 8.15875 8.62073C9.8378 8.62073 11.5169 8.6247 13.1959 8.61358C13.3596 8.61278 13.5344 8.53888 13.683 8.45862C14.1963 8.1805 14.685 7.85232 15.2111 7.60201C16.1384 7.1602 17.088 7.1745 18.0408 7.5591C19.7333 8.24169 21.4299 8.91395 23.1248 9.59018C23.2337 9.63388 23.3441 9.67282 23.4665 9.7197C23.511 9.51786 23.5309 9.33113 23.5936 9.15949C23.7414 8.7574 24.0235 8.47054 24.4224 8.31241C26.2779 7.57658 28.2049 7.26986 30.1962 7.37872C30.6349 7.40256 30.6738 7.45659 30.6738 7.90874C30.6738 11.7842 30.6738 15.6604 30.6738 19.5358C30.6738 20.0165 30.6301 20.0594 30.143 20.0594C29.5764 20.0594 29.0106 20.0594 28.4441 20.0594C27.5843 20.0586 27.129 19.7487 26.8047 18.9469C26.7793 18.8834 26.7499 18.8206 26.7475 18.8142C26.2445 19.1655 25.7399 19.5183 25.2171 19.8846C25.6478 21.4214 24.1539 22.557 22.8046 21.9252C22.741 22.5927 22.4581 23.1315 21.8574 23.4493C21.2694 23.7608 20.6726 23.7203 20.0925 23.3969C19.8676 24.7581 18.6153 25.3938 17.4067 24.7374C17.1985 25.5424 16.7749 25.9596 16.0613 26.0517C15.668 26.1026 15.312 25.9921 14.9965 25.7609C11.5915 23.2666 8.3574 20.5767 5.48879 17.4681C5.42204 17.3958 5.35052 17.3291 5.25199 17.2313C5.20431 17.368 5.16378 17.4824 5.12485 17.5969C4.90394 18.2493 4.40809 18.6267 3.72233 18.6394C3.07709 18.6513 2.43105 18.645 1.78502 18.6434C1.39247 18.6426 1.33367 18.583 1.33367 18.1936C1.33287 16.6536 1.33367 15.1129 1.33367 13.5729C1.33367 11.208 1.33367 8.84243 1.33367 6.47761C1.33367 6.04454 1.37499 6.00321 1.80329 5.97699C3.5491 5.86972 5.22259 6.17168 6.82854 6.863C7.62476 7.20549 7.92989 7.71088 7.84964 8.62311L7.84884 8.62073ZM12.7787 9.22067C11.0846 9.22067 9.46512 9.22306 7.84646 9.2167C7.66925 9.2167 7.63667 9.31444 7.59694 9.44476C6.89926 11.7516 6.19839 14.0576 5.50627 16.366C5.47925 16.4558 5.50786 16.5996 5.56666 16.6711C5.79313 16.9469 6.03947 17.2075 6.28501 17.4673C9.01615 20.3598 12.0675 22.8828 15.2635 25.2372C15.7419 25.5901 16.256 25.5535 16.5985 25.1546C16.941 24.7557 16.8957 24.2455 16.4746 23.8236C15.7308 23.0782 14.9854 22.3345 14.2401 21.5899C14.1836 21.5335 14.1256 21.4794 14.0724 21.4198C13.9484 21.2816 13.9294 21.1354 14.0676 20.9979C14.2059 20.8604 14.3505 20.8779 14.488 21.0066C14.546 21.0615 14.6024 21.1171 14.6588 21.1727C15.61 22.1183 16.5588 23.0663 17.5123 24.0095C17.9836 24.476 18.6653 24.4951 19.1167 24.066C19.5792 23.6257 19.5824 22.9352 19.1191 22.4401C18.8608 22.1644 18.5946 21.8966 18.3316 21.6264C17.7221 20.9995 17.1111 20.3741 16.504 19.7456C16.291 19.5254 16.314 19.2569 16.5628 19.21C16.6764 19.1885 16.848 19.2712 16.9378 19.3609C17.6244 20.0507 18.2974 20.7547 18.9753 21.454C19.3901 21.8823 19.7977 22.3178 20.222 22.7357C20.5542 23.0631 20.9642 23.1505 21.406 23.0099C21.8415 22.8708 22.0982 22.553 22.18 22.1088C22.2603 21.6717 22.0966 21.3134 21.7827 21.0106C20.7322 19.9959 19.6849 18.9787 18.6359 17.9624C18.5787 17.9068 18.5199 17.8535 18.4659 17.7955C18.338 17.6581 18.3102 17.4856 18.4635 17.3823C18.5565 17.3195 18.7289 17.3466 18.8561 17.3744C18.9308 17.3911 18.9888 17.488 19.0531 17.55C20.288 18.7451 21.5212 19.9426 22.7585 21.1362C23.271 21.6312 23.96 21.6399 24.3978 21.1671C24.8357 20.6935 24.7935 20.0229 24.2794 19.5509C21.8264 17.3013 19.3694 15.0564 16.918 12.806C16.786 12.6853 16.6684 12.6519 16.4928 12.6972C15.6505 12.9149 14.9544 13.3837 14.3346 13.9678C13.8769 14.3993 13.3389 14.6544 12.7398 14.7831C11.2713 15.0993 10.2454 14.0854 10.576 12.6241C10.673 12.1966 10.8454 11.7667 11.0727 11.3924C11.3905 10.8687 11.7854 10.3912 12.1613 9.90485C12.3345 9.68076 12.5411 9.48211 12.7787 9.22067ZM16.6827 7.82053C16.0598 7.85629 15.521 8.08117 14.9989 8.35532C13.4359 9.17617 12.3123 10.4388 11.4358 11.9399C11.1934 12.3547 11.0647 12.8164 11.11 13.3106C11.1561 13.8113 11.4453 14.1434 11.9412 14.2173C12.6659 14.3254 13.3008 14.0886 13.834 13.615C14.6231 12.9125 15.4614 12.3166 16.5191 12.0933C16.7916 12.036 16.9998 12.0813 17.2183 12.2832C19.6865 14.5582 22.1665 16.8205 24.637 19.0932C24.8007 19.2433 24.9405 19.2712 25.1376 19.1988C25.6215 19.0208 25.9775 18.6863 26.301 18.3001C26.4392 18.1356 26.4511 17.9878 26.3764 17.7868C25.4984 15.4259 24.6322 13.0611 23.751 10.7019C23.7001 10.566 23.5627 10.4182 23.43 10.3641C21.5554 9.60607 19.6769 8.85673 17.7921 8.1217C17.4369 7.98343 17.053 7.91907 16.6827 7.81974V7.82053ZM30.0619 19.4619V7.96118C28.2605 7.88569 26.537 8.14236 24.8706 8.77091C24.1046 9.06016 23.9282 9.44079 24.2063 10.1981C24.6926 11.5195 25.1781 12.8418 25.6652 14.1633C26.235 15.708 26.8079 17.2512 27.3745 18.7976C27.5096 19.1655 27.744 19.4349 28.1397 19.4531C28.7723 19.4833 29.408 19.4611 30.0619 19.4611V19.4619ZM1.93679 18.0578C2.51846 18.0578 3.06437 18.0625 3.61028 18.0562C4.15778 18.0498 4.42716 17.848 4.58847 17.3195C5.46813 14.4358 6.34619 11.5521 7.22108 8.66761C7.40226 8.06925 7.20599 7.6783 6.62749 7.42799C5.61831 6.99094 4.56543 6.71441 3.4744 6.59998C2.96743 6.54674 2.45489 6.54674 1.93679 6.52211V18.0578Z" fill="white"/>
<path d="M7.84884 8.62073C7.96327 8.62073 8.06101 8.62073 8.15875 8.62073C9.8378 8.62073 11.5169 8.6247 13.1959 8.61358C13.3596 8.61278 13.5344 8.53888 13.683 8.45862C14.1963 8.1805 14.685 7.85232 15.2111 7.60201C16.1384 7.1602 17.088 7.1745 18.0408 7.5591C19.7333 8.24169 21.4299 8.91395 23.1248 9.59018C23.2337 9.63388 23.3441 9.67282 23.4665 9.7197C23.511 9.51786 23.5309 9.33113 23.5936 9.15949C23.7414 8.7574 24.0235 8.47054 24.4224 8.31241C26.2779 7.57658 28.2049 7.26986 30.1962 7.37872C30.6349 7.40256 30.6738 7.45659 30.6738 7.90874C30.6738 11.7842 30.6738 15.6604 30.6738 19.5358C30.6738 20.0165 30.6301 20.0594 30.143 20.0594C29.5764 20.0594 29.0106 20.0594 28.4441 20.0594C27.5843 20.0586 27.129 19.7487 26.8047 18.9469C26.7793 18.8834 26.7499 18.8206 26.7475 18.8142C26.2445 19.1655 25.7399 19.5183 25.2171 19.8846C25.6478 21.4214 24.1539 22.557 22.8046 21.9252C22.741 22.5927 22.4581 23.1315 21.8574 23.4493C21.2694 23.7608 20.6726 23.7203 20.0925 23.3969C19.8676 24.7581 18.6153 25.3938 17.4067 24.7374C17.1985 25.5424 16.7749 25.9596 16.0613 26.0517C15.668 26.1026 15.312 25.9921 14.9965 25.7609C11.5915 23.2666 8.3574 20.5767 5.48879 17.4681C5.42204 17.3958 5.35052 17.3291 5.25199 17.2313C5.20431 17.368 5.16378 17.4824 5.12485 17.5969C4.90394 18.2493 4.40809 18.6267 3.72233 18.6394C3.07709 18.6513 2.43105 18.645 1.78502 18.6434C1.39247 18.6426 1.33367 18.583 1.33367 18.1936C1.33287 16.6536 1.33367 15.1129 1.33367 13.5729C1.33367 11.208 1.33367 8.84243 1.33367 6.47761C1.33367 6.04454 1.37499 6.00321 1.80329 5.97699C3.5491 5.86972 5.22259 6.17168 6.82854 6.863C7.62476 7.20549 7.92989 7.71088 7.84964 8.62311L7.84884 8.62073ZM12.7787 9.22067C11.0846 9.22067 9.46512 9.22306 7.84646 9.2167C7.66925 9.2167 7.63667 9.31444 7.59694 9.44476C6.89926 11.7516 6.19839 14.0576 5.50627 16.366C5.47925 16.4558 5.50786 16.5996 5.56666 16.6711C5.79313 16.9469 6.03947 17.2075 6.28501 17.4673C9.01615 20.3598 12.0675 22.8828 15.2635 25.2372C15.7419 25.5901 16.256 25.5535 16.5985 25.1546C16.941 24.7557 16.8957 24.2455 16.4746 23.8236C15.7308 23.0782 14.9854 22.3345 14.2401 21.5899C14.1836 21.5335 14.1256 21.4794 14.0724 21.4198C13.9484 21.2816 13.9294 21.1354 14.0676 20.9979C14.2059 20.8604 14.3505 20.8779 14.488 21.0066C14.546 21.0615 14.6024 21.1171 14.6588 21.1727C15.61 22.1183 16.5588 23.0663 17.5123 24.0095C17.9836 24.476 18.6653 24.4951 19.1167 24.066C19.5792 23.6257 19.5824 22.9352 19.1191 22.4401C18.8608 22.1644 18.5946 21.8966 18.3316 21.6264C17.7221 20.9995 17.1111 20.3741 16.504 19.7456C16.291 19.5254 16.314 19.2569 16.5628 19.21C16.6764 19.1885 16.848 19.2712 16.9378 19.3609C17.6244 20.0507 18.2974 20.7547 18.9753 21.454C19.3901 21.8823 19.7977 22.3178 20.222 22.7357C20.5542 23.0631 20.9642 23.1505 21.406 23.0099C21.8415 22.8708 22.0982 22.553 22.18 22.1088C22.2603 21.6717 22.0966 21.3134 21.7827 21.0106C20.7322 19.9959 19.6849 18.9787 18.6359 17.9624C18.5787 17.9068 18.5199 17.8535 18.4659 17.7955C18.338 17.6581 18.3102 17.4856 18.4635 17.3823C18.5565 17.3195 18.7289 17.3466 18.8561 17.3744C18.9308 17.3911 18.9888 17.488 19.0531 17.55C20.288 18.7451 21.5212 19.9426 22.7585 21.1362C23.271 21.6312 23.96 21.6399 24.3978 21.1671C24.8357 20.6935 24.7935 20.0229 24.2794 19.5509C21.8264 17.3013 19.3694 15.0564 16.918 12.806C16.786 12.6853 16.6684 12.6519 16.4928 12.6972C15.6505 12.9149 14.9544 13.3837 14.3346 13.9678C13.8769 14.3993 13.3389 14.6544 12.7398 14.7831C11.2713 15.0993 10.2454 14.0854 10.576 12.6241C10.673 12.1966 10.8454 11.7667 11.0727 11.3924C11.3905 10.8687 11.7854 10.3912 12.1613 9.90485C12.3345 9.68076 12.5411 9.48211 12.7787 9.22067ZM16.6827 7.82053C16.0598 7.85629 15.521 8.08117 14.9989 8.35532C13.4359 9.17617 12.3123 10.4388 11.4358 11.9399C11.1934 12.3547 11.0647 12.8164 11.11 13.3106C11.1561 13.8113 11.4453 14.1434 11.9412 14.2173C12.6659 14.3254 13.3008 14.0886 13.834 13.615C14.6231 12.9125 15.4614 12.3166 16.5191 12.0933C16.7916 12.036 16.9998 12.0813 17.2183 12.2832C19.6865 14.5582 22.1665 16.8205 24.637 19.0932C24.8007 19.2433 24.9405 19.2712 25.1376 19.1988C25.6215 19.0208 25.9775 18.6863 26.301 18.3001C26.4392 18.1356 26.4511 17.9878 26.3764 17.7868C25.4984 15.4259 24.6322 13.0611 23.751 10.7019C23.7001 10.566 23.5627 10.4182 23.43 10.3641C21.5554 9.60607 19.6769 8.85673 17.7921 8.1217C17.4369 7.98343 17.053 7.91907 16.6827 7.81974V7.82053ZM30.0619 19.4619V7.96118C28.2605 7.88569 26.537 8.14236 24.8706 8.77091C24.1046 9.06016 23.9282 9.44079 24.2063 10.1981C24.6926 11.5195 25.1781 12.8418 25.6652 14.1633C26.235 15.708 26.8079 17.2512 27.3745 18.7976C27.5096 19.1655 27.744 19.4349 28.1397 19.4531C28.7723 19.4833 29.408 19.4611 30.0619 19.4611V19.4619ZM1.93679 18.0578C2.51846 18.0578 3.06437 18.0625 3.61028 18.0562C4.15778 18.0498 4.42716 17.848 4.58847 17.3195C5.46813 14.4358 6.34619 11.5521 7.22108 8.66761C7.40226 8.06925 7.20599 7.6783 6.62749 7.42799C5.61831 6.99094 4.56543 6.71441 3.4744 6.59998C2.96743 6.54674 2.45489 6.54674 1.93679 6.52211V18.0578Z" stroke="white" stroke-width="1.06667" mask="url(#path-1-outside-1_2_766)"/>
</svg>
