<svg width="20" height="20" viewBox="0 0 20 20" fill="none" xmlns="http://www.w3.org/2000/svg">
<path fill-rule="evenodd" clip-rule="evenodd" d="M18.25 2.99997C18.25 2.30961 17.6904 1.74997 17 1.74997C16.3096 1.74997 15.75 2.30961 15.75 2.99997C15.75 3.69033 16.3096 4.24997 17 4.24997C17.6904 4.24997 18.25 3.69033 18.25 2.99997ZM17 0.24997C18.5188 0.24997 19.75 1.48119 19.75 2.99997C19.75 4.51875 18.5188 5.74997 17 5.74997C15.4812 5.74997 14.25 4.51875 14.25 2.99997C14.25 1.48119 15.4812 0.24997 17 0.24997ZM11.75 2.99997C11.75 2.58576 11.4142 2.24997 11 2.24997L1 2.24997C0.585787 2.24997 0.25 2.58576 0.25 2.99997C0.250001 3.41418 0.585786 3.74997 1 3.74997L11 3.74997C11.4142 3.74997 11.75 3.41418 11.75 2.99997ZM11 9.24997C11.4142 9.24997 11.75 9.58576 11.75 9.99997C11.75 10.4142 11.4142 10.75 11 10.75L1 10.75C0.585785 10.75 0.25 10.4142 0.25 9.99997C0.25 9.58576 0.585786 9.24997 1 9.24997L11 9.24997ZM11 16.25C11.4142 16.25 11.75 16.5858 11.75 17C11.75 17.4142 11.4142 17.75 11 17.75L0.999999 17.75C0.585786 17.75 0.249999 17.4142 0.249999 17C0.250001 16.5858 0.585786 16.25 1 16.25L11 16.25ZM17 8.74997C17.6904 8.74997 18.25 9.30961 18.25 9.99997C18.25 10.6903 17.6904 11.25 17 11.25C16.3096 11.25 15.75 10.6903 15.75 9.99997C15.75 9.30961 16.3096 8.74997 17 8.74997ZM19.75 9.99997C19.75 8.48119 18.5188 7.24997 17 7.24997C15.4812 7.24997 14.25 8.48119 14.25 9.99997C14.25 11.5188 15.4812 12.75 17 12.75C18.5188 12.75 19.75 11.5188 19.75 9.99997ZM18.25 17C18.25 16.3096 17.6904 15.75 17 15.75C16.3096 15.75 15.75 16.3096 15.75 17C15.75 17.6903 16.3096 18.25 17 18.25C17.6904 18.25 18.25 17.6903 18.25 17ZM17 14.25C18.5188 14.25 19.75 15.4812 19.75 17C19.75 18.5188 18.5188 19.75 17 19.75C15.4812 19.75 14.25 18.5188 14.25 17C14.25 15.4812 15.4812 14.25 17 14.25Z" fill="white"/>
</svg>
