<svg width="32" height="32" viewBox="0 0 32 32" fill="none" xmlns="http://www.w3.org/2000/svg">
<path fill-rule="evenodd" clip-rule="evenodd" d="M10.5935 4.33341H10.6666H21.3333H21.4065C23.2299 4.33338 24.6997 4.33336 25.8556 4.48878C27.0558 4.65013 28.0663 4.99532 28.8688 5.79788C29.6714 6.60043 30.0166 7.61093 30.1779 8.81108C30.2426 9.29181 30.2803 9.82682 30.3024 10.419C30.3226 10.4982 30.3333 10.5812 30.3333 10.6667C30.3333 10.731 30.3272 10.7938 30.3157 10.8547C30.3333 11.5766 30.3333 12.3769 30.3333 13.2602V13.3334V18.6667V18.7399C30.3333 20.5634 30.3333 22.0331 30.1779 23.1891C30.0166 24.3892 29.6714 25.3997 28.8688 26.2023C28.0663 27.0048 27.0558 27.35 25.8556 27.5114C24.6997 27.6668 23.2299 27.6668 21.4064 27.6667H21.3333H10.6666H10.5935C8.77002 27.6668 7.30025 27.6668 6.14429 27.5114C4.94415 27.35 3.93365 27.0048 3.13109 26.2023C2.32854 25.3997 1.98335 24.3892 1.82199 23.1891C1.66658 22.0331 1.6666 20.5634 1.66663 18.7399L1.66663 18.6667V13.3334L1.66663 13.2603C1.66661 12.3769 1.6666 11.5766 1.68426 10.8547C1.67269 10.7938 1.66663 10.731 1.66663 10.6667C1.66663 10.5812 1.67736 10.4982 1.69756 10.419C1.71961 9.82682 1.75736 9.29181 1.82199 8.81108C1.98335 7.61093 2.32854 6.60043 3.13109 5.79788C3.93365 4.99532 4.94415 4.65013 6.14429 4.48878C7.30025 4.33336 8.77001 4.33338 10.5935 4.33341ZM28.1958 9.07757C28.2206 9.26241 28.241 9.45828 28.2577 9.66675H3.74226C3.75894 9.45828 3.77931 9.26241 3.80416 9.07757C3.93569 8.0992 4.17629 7.58111 4.54531 7.21209C4.91432 6.84307 5.43242 6.60248 6.41079 6.47094C7.41792 6.33554 8.75274 6.33341 10.6666 6.33341H21.3333C23.2472 6.33341 24.582 6.33554 25.5891 6.47094C26.5675 6.60248 27.0856 6.84307 27.4546 7.21209C27.8236 7.58111 28.0642 8.0992 28.1958 9.07757ZM3.66663 13.3334C3.66663 12.7214 3.66684 12.1686 3.67157 11.6667H28.3284C28.3331 12.1686 28.3333 12.7214 28.3333 13.3334V18.6667C28.3333 20.5806 28.3312 21.9154 28.1958 22.9226C28.0642 23.901 27.8236 24.419 27.4546 24.7881C27.0856 25.1571 26.5675 25.3977 25.5891 25.5292C24.582 25.6646 23.2472 25.6667 21.3333 25.6667H10.6666C8.75274 25.6667 7.41792 25.6646 6.41079 25.5292C5.43242 25.3977 4.91432 25.1571 4.54531 24.7881C4.17629 24.419 3.93569 23.901 3.80416 22.9226C3.66875 21.9154 3.66663 20.5806 3.66663 18.6667V13.3334ZM7.99996 15.0001C7.44768 15.0001 6.99996 15.4478 6.99996 16.0001C6.99996 16.5524 7.44768 17.0001 7.99996 17.0001H13.3333C13.8856 17.0001 14.3333 16.5524 14.3333 16.0001C14.3333 15.4478 13.8856 15.0001 13.3333 15.0001H7.99996Z" fill="white"/>
</svg>
