<svg width="32" height="32" viewBox="0 0 32 32" fill="none" xmlns="http://www.w3.org/2000/svg">
<path fill-rule="evenodd" clip-rule="evenodd" d="M11.9268 4.33334L12 4.33334H20L20.0732 4.33334C21.8966 4.33332 23.3664 4.33329 24.5223 4.48871C25.7225 4.65006 26.733 4.99526 27.5355 5.79781C28.3381 6.60037 28.6833 7.61087 28.8446 8.81101C29.0001 9.96696 29 11.4367 29 13.2601V13.3333V26.6667C29 27.0133 28.8205 27.3351 28.5257 27.5173C28.2309 27.6995 27.8628 27.7161 27.5528 27.5611L24.4717 26.0205C23.3105 25.4399 22.8684 25.2257 22.4032 25.1159C21.9381 25.0061 21.4469 25 20.1486 25H12H11.9269C10.1034 25 8.63363 25.0001 7.47767 24.8446C6.27752 24.6833 5.26702 24.3381 4.46447 23.5355C3.66191 22.733 3.31672 21.7225 3.15536 20.5223C2.99995 19.3664 2.99997 17.8966 3 16.0732V16V13.3333V13.2602C2.99997 11.4367 2.99995 9.96697 3.15536 8.81101C3.31672 7.61087 3.66191 6.60037 4.46447 5.79781C5.26702 4.99526 6.27752 4.65006 7.47767 4.48871C8.63362 4.33329 10.1034 4.33332 11.9268 4.33334ZM7.74416 6.47087C6.76579 6.60241 6.2477 6.84301 5.87868 7.21202C5.50966 7.58104 5.26907 8.09914 5.13753 9.07751C5.00212 10.0846 5 11.4195 5 13.3333V16C5 17.9139 5.00212 19.2487 5.13753 20.2559C5.26907 21.2342 5.50966 21.7523 5.87868 22.1213C6.2477 22.4904 6.76579 22.7309 7.74416 22.8625C8.7513 22.9979 10.0861 23 12 23H20.1486L20.2667 23C21.4073 22.9998 22.1437 22.9997 22.8627 23.1694C23.5818 23.3392 24.2405 23.6686 25.2605 24.1789L25.3661 24.2317L27 25.0486V13.3333C27 11.4195 26.9979 10.0846 26.8625 9.07751C26.7309 8.09914 26.4903 7.58104 26.1213 7.21202C25.7523 6.84301 25.2342 6.60241 24.2558 6.47087C23.2487 6.33547 21.9139 6.33335 20 6.33335H12C10.0861 6.33335 8.7513 6.33547 7.74416 6.47087ZM8.3333 10.6667C8.3333 10.1144 8.78102 9.66668 9.3333 9.66668H20C20.5523 9.66668 21 10.1144 21 10.6667C21 11.219 20.5523 11.6667 20 11.6667H9.3333C8.78102 11.6667 8.3333 11.219 8.3333 10.6667ZM9.3333 15C8.78102 15 8.3333 15.4477 8.3333 16C8.3333 16.5523 8.78102 17 9.3333 17H14.6666C15.2189 17 15.6666 16.5523 15.6666 16C15.6666 15.4477 15.2189 15 14.6666 15H9.3333Z" fill="white"/>
</svg>
