<svg width="32" height="32" viewBox="0 0 32 32" fill="none" xmlns="http://www.w3.org/2000/svg">
<path fill-rule="evenodd" clip-rule="evenodd" d="M11.668 1.33333C11.668 0.781049 11.2203 0.333334 10.668 0.333334C10.1157 0.333334 9.66797 0.781049 9.66797 1.33333V3.01213C8.70827 3.03666 7.972 3.11003 7.32072 3.32832C5.43756 3.95949 3.95955 5.4375 3.32838 7.32065C2.9993 8.3025 2.99958 9.4775 3.00003 11.32L3.00007 11.5294V17.3333L3.00007 17.4086C3.00004 19.8589 3.00003 21.7997 3.20425 23.3187C3.41442 24.8819 3.85724 26.1472 4.85506 27.145C5.85287 28.1428 7.11814 28.5857 8.68137 28.7958C10.2003 29 12.1411 29 14.5913 29H14.5915H14.6667H17.3334H17.4087H17.4088C19.8591 29 21.7999 29 23.3188 28.7958C24.882 28.5857 26.1473 28.1428 27.1451 27.145C28.1429 26.1472 28.5857 24.8819 28.7959 23.3187C29.0001 21.7998 29.0001 19.8589 29.0001 17.4086V17.3333V14.6667V14.5914C29.0001 12.1411 29.0001 10.2002 28.7959 8.6813C28.5857 7.11807 28.1429 5.85281 27.1451 4.85499C26.1473 3.85717 24.882 3.41435 23.3188 3.20418C23.0078 3.16237 22.6791 3.12912 22.332 3.10268V1.33333C22.332 0.781049 21.8843 0.333334 21.332 0.333334C20.7797 0.333334 20.332 0.781049 20.332 1.33333V3.01693C19.4497 2.99998 18.4777 2.99999 17.4088 3H17.4088H17.4087H17.4087H17.4087H17.4087H17.4087H17.4086H17.4086L17.3334 3H11.668V1.33333ZM20.332 5.33333V5.01742C19.4621 5.00043 18.4715 5 17.3334 5H11.668V5.33333C11.668 5.88562 11.2203 6.33333 10.668 6.33333C10.1157 6.33333 9.66797 5.88562 9.66797 5.33333V5.01432C8.83194 5.03612 8.35663 5.09046 7.9563 5.22464C6.66783 5.65649 5.65656 6.66776 5.2247 7.95624C5.01313 8.58748 5.00007 9.40513 5.00007 11.5294V17.3333C5.00007 19.8758 5.00219 21.682 5.18641 23.0522C5.36676 24.3937 5.70499 25.1665 6.26927 25.7308C6.83355 26.2951 7.60641 26.6333 8.94786 26.8137C10.3181 26.9979 12.1243 27 14.6667 27H17.3334C19.8758 27 21.682 26.9979 23.0523 26.8137C24.3937 26.6333 25.1666 26.2951 25.7309 25.7308C26.2951 25.1665 26.6334 24.3937 26.8137 23.0522C26.9979 21.682 27.0001 19.8758 27.0001 17.3333V14.6667C27.0001 12.1242 26.9979 10.318 26.8137 8.9478C26.6334 7.60635 26.2951 6.83348 25.7309 6.26921C25.1666 5.70493 24.3937 5.3667 23.0523 5.18635C22.8247 5.15575 22.5851 5.13017 22.332 5.1088V5.33333C22.332 5.88562 21.8843 6.33333 21.332 6.33333C20.7797 6.33333 20.332 5.88562 20.332 5.33333ZM9.33203 9.66671C8.77975 9.66671 8.33203 10.1144 8.33203 10.6667C8.33203 11.219 8.77975 11.6667 9.33203 11.6667H22.6654C23.2176 11.6667 23.6654 11.219 23.6654 10.6667C23.6654 10.1144 23.2176 9.66671 22.6654 9.66671H9.33203ZM11.9987 16C11.9987 16.7364 11.4017 17.3334 10.6654 17.3334C9.92899 17.3334 9.33203 16.7364 9.33203 16C9.33203 15.2637 9.92899 14.6667 10.6654 14.6667C11.4017 14.6667 11.9987 15.2637 11.9987 16ZM10.6654 22.6666C11.4017 22.6666 11.9987 22.0697 11.9987 21.3333C11.9987 20.5969 11.4017 20 10.6654 20C9.92899 20 9.33203 20.5969 9.33203 21.3333C9.33203 22.0697 9.92899 22.6666 10.6654 22.6666ZM17.3346 21.3333C17.3346 22.0697 16.7377 22.6666 16.0013 22.6666C15.2649 22.6666 14.668 22.0697 14.668 21.3333C14.668 20.5969 15.2649 20 16.0013 20C16.7377 20 17.3346 20.5969 17.3346 21.3333ZM21.3334 22.6667C22.0698 22.6667 22.6667 22.0697 22.6667 21.3333C22.6667 20.597 22.0698 20 21.3334 20C20.597 20 20.0001 20.597 20.0001 21.3333C20.0001 22.0697 20.597 22.6667 21.3334 22.6667ZM17.3346 16C17.3346 16.7364 16.7377 17.3334 16.0013 17.3334C15.2649 17.3334 14.668 16.7364 14.668 16C14.668 15.2637 15.2649 14.6667 16.0013 14.6667C16.7377 14.6667 17.3346 15.2637 17.3346 16ZM21.3334 17.3333C22.0698 17.3333 22.6667 16.7364 22.6667 16C22.6667 15.2636 22.0698 14.6667 21.3334 14.6667C20.597 14.6667 20.0001 15.2636 20.0001 16C20.0001 16.7364 20.597 17.3333 21.3334 17.3333Z" fill="white"/>
</svg>
